<?xml version="1.0" encoding="UTF-8" standalone="no"?>
<!DOCTYPE svg PUBLIC "-//W3C//DTD SVG 1.1//EN"
 "http://www.w3.org/Graphics/SVG/1.1/DTD/svg11.dtd">
<!-- Generated by graphviz version 2.36.0 (20140111.2315)
 -->
<!-- Title: G Pages: 1 -->
<svg width="112pt" height="130pt"
 viewBox="0.00 0.00 112.00 130.00" xmlns="http://www.w3.org/2000/svg" xmlns:xlink="http://www.w3.org/1999/xlink">
<g id="graph0" class="graph" transform="scale(1 1) rotate(0) translate(4 126)">
<title>G</title>
<polygon fill="white" stroke="none" points="-4,4 -4,-126 108,-126 108,4 -4,4"/>
<g id="clust1" class="cluster"><title>cluster_Global</title>
<path fill="none" stroke="gray" d="M20,-8C20,-8 84,-8 84,-8 90,-8 96,-14 96,-20 96,-20 96,-102 96,-102 96,-108 90,-114 84,-114 84,-114 20,-114 20,-114 14,-114 8,-108 8,-102 8,-102 8,-20 8,-20 8,-14 14,-8 20,-8"/>
<text text-anchor="middle" x="52" y="-101.2" font-family="Times,serif" font-size="11.00" fill="gray">Global</text>
</g>
<g id="clust2" class="cluster"><title>cluster_\Logged</title>
<path fill="none" stroke="gray" d="M28,-16C28,-16 76,-16 76,-16 82,-16 88,-22 88,-28 88,-28 88,-75 88,-75 88,-81 82,-87 76,-87 76,-87 28,-87 28,-87 22,-87 16,-81 16,-75 16,-75 16,-28 16,-28 16,-22 22,-16 28,-16"/>
<text text-anchor="middle" x="52" y="-74.2" font-family="Times,serif" font-size="11.00" fill="gray">Logged</text>
</g>
<!-- \\Logged\\Logged -->
<g id="node1" class="node"><title>\\Logged\\Logged</title>
<polygon fill="none" stroke="black" points="79.6078,-60 24.3922,-60 24.3922,-24 79.6078,-24 79.6078,-60"/>
<text text-anchor="middle" x="52" y="-38.7" font-family="Courier,monospace" font-size="11.00">Logged</text>
</g>
</g>
</svg>
